{"title":"The Adjustment Bureau 2011 XViD BRRip - DTRG - SAFCuk009","uid":6459400,"size":2032791222,"categoryP":"video","categoryS":"movies","magnet":"?xt=urn:btih:53cc70edca0155e9c7d790034851b6dfb5609e8c&amp;dn=The+Adjustment+Bureau+2011+XViD+BRRip+-+DTRG+-+SAFCuk009&amp;tr=udp%3A%2F%2Ftracker.openbittorrent.com%3A80&amp;tr=udp%3A%2F%2Fopen.demonii.com%3A1337&amp;tr=udp%3A%2F%2Ftracker.coppersurfer.tk%3A6969&amp;tr=udp%3A%2F%2Fexodus.desync.com%3A6969","seeders":0,"leechers":1,"uploader":"SAFCukO09","files":3,"time":1307701649,"description":"Video\nID : 0\nFormat : MPEG-4 Visual\nFormat profile : Advanced Simple@L5\nFormat settings, BVOP : 2\nFormat settings, QPel : No\nFormat settings, GMC : No warppoints\nFormat settings, Matrix : Default (H.263)\nMuxing mode : Packed bitstream\nCodec ID : XVID\nCodec ID/Hint : XviD\nDuration : 1h 41mn\nBit rate : 1 122 Kbps\nWidth : 720 pixels\nHeight : 384 pixels\nDisplay aspect ratio : 1.875\nFrame rate : 23.976 fps\nColor space : YUV\nChroma subsampling : 4:2:0\nBit depth : 8 bits\nScan type : Progressive\nCompression mode : Lossy\nBits/(Pixel*Frame) : 0.169\nStream size : 817 MiB (42%)\nWriting library : XviD 63\n\nAudio\nID : 1\nFormat : PCM\nFormat settings, Endianness : Little\nFormat settings, Sign : Signed\nCodec ID : 1\nCodec ID/Hint : Microsoft\nDuration : 1h 41mn\nBit rate mode : Constant\nBit rate : 1 536 Kbps\nChannel(s) : 2 channels\nSampling rate : 48.0 KHz\nBit depth : 16 bits\nStream size : 1.09 GiB (58%)\nInterleave, duration : 500 ms (11.99 video frames)\nInterleave, preload duration : 500 ms\n\n\n\n &lt;a href=&quot;\nhttp://www.imdb.com/title/tt1385826/&quot; rel=&quot;nofollow&quot; target=&quot;_NEW&quot;&gt;\nhttp://www.imdb.com/title/tt1385826/&lt;/a&gt;\n\n\n\n84434050717770922575.png\n\n\nMatt Damon,\nEmily Blunt,\nAnthony Mackie,\nJohn Slattery,\nShohreh Aghdashloo,\nMichael Kelly,\nTerence Stamp\n\n\n\n89524873606771859129.png\n\n\n\nStoryline\n\nDo we control our destiny, or do unseen forces manipulate us? Matt Damon stars in the thriller The Adjustment Bureau as a man who glimpses the future Fate has planned for him and realizes he wants something else. To get it, he must pursue the only woman he's ever loved across, under and through the streets of modern-day New York. On the brink of winning a seat in the U.S. Senate, ambitious politician David Norris (Damon) meets beautiful contemporary ballet dancer Elise Sellas (Emily Blunt)-a woman like none he's ever known. But just as he realizes he's falling for her, mysterious men conspire to keep the two apart. David learns he is up against the agents of Fate itself-the men of The Adjustment Bureau-who will do everything in their considerable power to prevent David and Elise from being together. In the face of overwhelming odds, he must either let her go and accept a predetermined path...\n\n\n95521316153253938506.png\n\n\n\n\nvlcsnap2011061006h25m58.png\n\nvlcsnap2011061006h26m26.png\n\nvlcsnap2011061006h28m02.png\n\nvlcsnap2011061006h27m53.png\n\n\n\nSource Used\n\n\nThe Adjustment Bureau 2011 720p BluRay x264-SiNNERS ........ Thanks\n\nChopped some ending credits to cut the file size abit\n\n\nGreetz to IMAGiNE,Flawl3ss,DiLLoN,BDK,NOiR,TOXiC,THC,Ez,Rx,Boobyblue,TaRiQ786,LKRG,EP1C","torrent":{"xt":"urn:btih:53cc70edca0155e9c7d790034851b6dfb5609e8c","amp;dn":"The+Adjustment+Bureau+2011+XViD+BRRip+-+DTRG+-+SAFCuk009","amp;tr":["udp%3A%2F%2Ftracker.openbittorrent.com%3A80","udp%3A%2F%2Fopen.demonii.com%3A1337","udp%3A%2F%2Ftracker.coppersurfer.tk%3A6969","udp%3A%2F%2Fexodus.desync.com%3A6969"],"infoHash":"53cc70edca0155e9c7d790034851b6dfb5609e8c","infoHashBuffer":{"type":"Buffer","data":[83,204,112,237,202,1,85,233,199,215,144,3,72,81,182,223,181,96,158,140]},"announce":[],"urlList":[]}}